<svg width="356" height="360" viewBox="0 0 356 360" fill="none" xmlns="http://www.w3.org/2000/svg">
<rect width="356" height="360" fill="white"/>
<path d="M55.4256 266V298L0 266V84L41.4256 107.917L91.4256 239L140.426 172L171.426 190V360L113.426 329V298L146.426 314V211L91.4256 281L77.4256 272L27.4256 139V251L55.4256 266Z" fill="url(#paint0_linear_0_1)"/>
<path d="M72.2305 36.585L245.778 153.085L245.885 153.156L245.943 153.269L268.978 197.377L312.548 105.286L312.612 105.151L312.739 105.073L348.739 83.0732L350.182 82.1924L349.451 83.7158L279.5 229.613V299.789L279.25 299.933L257.75 312.346L257 312.779V239.635L215.624 168.849L71.9365 69.0986L54.4307 80.0088L65.2734 87.0811L65.4141 87.1738L65.4707 87.332L104.639 197.4L131.086 158.221L131.139 158.142L131.216 158.089L145.716 148.089L145.974 147.911L146.246 148.064L172.746 163.064L172.755 163.07L172.764 163.075L191.264 174.575L191.962 175.01L191.256 175.43L172.756 186.43L172.5 186.582L172.244 186.43L138.14 166.165L92.9072 229.79L92.3662 230.552L92.0332 229.679L44.5947 105.341L4.74707 81.9307L4.05762 81.5264L4.72363 81.084L71.6748 36.584L71.9531 36.3984L72.2305 36.585Z" fill="url(#paint1_linear_0_1)"/>
<path d="M242.5 132.5L82 31L144 0L206 37L242.5 13.5L349 73L306.5 101.5L270 172L261 157L292 92L242.5 132.5Z" fill="black" fill-opacity="0.2"/>
<path d="M206 37L144 0L242.5 13.5L206 37Z" fill="#8E988E"/>
<path d="M253.5 314.833L177 359V189.834L211.353 170L253.5 243V314.833Z" fill="#808E80"/>
<path d="M253.5 314.833L177 359V189.834L211.353 170L253.5 243V314.833Z" fill="#D9D9D9"/>
<path d="M253.5 243L218.5 262.5L211.5 170L253.5 243Z" fill="#8E988E"/>
<path d="M355.5 253.5V86L284 231.5V298L355.5 253.5Z" fill="#D9D9D9"/>
<defs>
<linearGradient id="paint0_linear_0_1" x1="85.7128" y1="84" x2="85.7128" y2="360" gradientUnits="userSpaceOnUse">
<stop offset="0.283654" stop-color="#515A51"/>
<stop offset="1" stop-color="#ADC0AD"/>
</linearGradient>
<linearGradient id="paint1_linear_0_1" x1="350.182" y1="174.589" x2="4.05762" y2="174.589" gradientUnits="userSpaceOnUse">
<stop stop-color="#515A51"/>
<stop offset="1" stop-color="#ADC0AD"/>
</linearGradient>
</defs>
</svg>
